<mxfile host="Electron" agent="Mozilla/5.0 (Windows NT 10.0; Win64; x64) AppleWebKit/537.36 (KHTML, like Gecko) draw.io/26.0.9 Chrome/128.0.6613.186 Electron/32.2.5 Safari/537.36" version="26.0.9">
  <diagram name="Page-1" id="CG54ZwG8BMAQRTS-ErT8">
    <mxGraphModel dx="3987" dy="2567" grid="1" gridSize="10" guides="1" tooltips="1" connect="1" arrows="1" fold="1" page="1" pageScale="1" pageWidth="827" pageHeight="1169" math="1" shadow="0">
      <root>
        <mxCell id="0" />
        <mxCell id="1" parent="0" />
        <mxCell id="oGCCvsIWoTRyKpccTCJd-90" value="" style="ellipse;whiteSpace=wrap;html=1;aspect=fixed;fillColor=#B7CCEF;dashed=1;strokeWidth=3;strokeColor=#91AACF;" parent="1" vertex="1">
          <mxGeometry x="-1095" y="-225" width="1500" height="1500" as="geometry" />
        </mxCell>
        <mxCell id="oGCCvsIWoTRyKpccTCJd-44" value="" style="rounded=1;whiteSpace=wrap;html=1;arcSize=10;strokeWidth=2;fillColor=#FFF8E1;strokeColor=#4D4D4D;" parent="1" vertex="1">
          <mxGeometry x="173" y="108.34" width="390" height="500" as="geometry" />
        </mxCell>
        <mxCell id="oGCCvsIWoTRyKpccTCJd-77" value="" style="shape=cylinder3;whiteSpace=wrap;html=1;boundedLbl=1;backgroundOutline=1;size=17.827603044180933;rotation=90;fillColor=#D5905E;strokeColor=#D5905E;" parent="1" vertex="1">
          <mxGeometry x="355.5" y="52.5" width="23" height="285" as="geometry" />
        </mxCell>
        <mxCell id="oGCCvsIWoTRyKpccTCJd-4" value="" style="shape=cylinder3;whiteSpace=wrap;html=1;boundedLbl=1;backgroundOutline=1;size=15;fillColor=#666666;rotation=330;strokeColor=#666666;" parent="1" vertex="1">
          <mxGeometry x="220" y="140" width="30" height="110" as="geometry" />
        </mxCell>
        <mxCell id="oGCCvsIWoTRyKpccTCJd-9" value="" style="shape=cylinder3;whiteSpace=wrap;html=1;boundedLbl=1;backgroundOutline=1;size=15;fillColor=#666666;rotation=338;strokeColor=#666666;" parent="1" vertex="1">
          <mxGeometry x="490" y="140" width="30" height="110" as="geometry" />
        </mxCell>
        <mxCell id="oGCCvsIWoTRyKpccTCJd-10" value="" style="shape=cylinder3;whiteSpace=wrap;html=1;boundedLbl=1;backgroundOutline=1;size=15;fillColor=#666666;strokeColor=#666666;" parent="1" vertex="1">
          <mxGeometry x="220" y="470" width="30" height="110" as="geometry" />
        </mxCell>
        <mxCell id="oGCCvsIWoTRyKpccTCJd-11" value="" style="shape=cylinder3;whiteSpace=wrap;html=1;boundedLbl=1;backgroundOutline=1;size=15;fillColor=#666666;strokeColor=#666666;" parent="1" vertex="1">
          <mxGeometry x="490" y="470" width="30" height="110" as="geometry" />
        </mxCell>
        <mxCell id="oGCCvsIWoTRyKpccTCJd-13" value="" style="verticalLabelPosition=bottom;shadow=0;dashed=0;align=center;html=1;verticalAlign=top;shape=mxgraph.electrical.logic_gates.inverting_contact;strokeWidth=2;fillColor=#000000;" parent="1" vertex="1">
          <mxGeometry x="365" y="354.3399999999995" width="10" height="10" as="geometry" />
        </mxCell>
        <mxCell id="oGCCvsIWoTRyKpccTCJd-15" value="" style="endArrow=blockThin;html=1;rounded=0;strokeWidth=3;endFill=1;endSize=18;exitX=0.509;exitY=0.17;exitDx=0;exitDy=0;exitPerimeter=0;" parent="1" source="oGCCvsIWoTRyKpccTCJd-13" edge="1">
          <mxGeometry width="50" height="50" relative="1" as="geometry">
            <mxPoint x="370" y="354.34" as="sourcePoint" />
            <mxPoint x="370.28" y="13.669999999999998" as="targetPoint" />
          </mxGeometry>
        </mxCell>
        <mxCell id="oGCCvsIWoTRyKpccTCJd-16" value="" style="endArrow=blockThin;html=1;rounded=0;strokeWidth=3;endFill=1;endSize=18;exitX=0.1;exitY=0.5;exitDx=0;exitDy=0;exitPerimeter=0;" parent="1" source="oGCCvsIWoTRyKpccTCJd-13" edge="1">
          <mxGeometry width="50" height="50" relative="1" as="geometry">
            <mxPoint x="375" y="358.9999999999998" as="sourcePoint" />
            <mxPoint x="135" y="359" as="targetPoint" />
          </mxGeometry>
        </mxCell>
        <mxCell id="oGCCvsIWoTRyKpccTCJd-26" value="" style="endArrow=none;dashed=1;html=1;rounded=0;strokeColor=#91AACF;strokeWidth=2;entryX=0.1;entryY=0.5;entryDx=0;entryDy=0;entryPerimeter=0;" parent="1" target="oGCCvsIWoTRyKpccTCJd-69" edge="1">
          <mxGeometry width="50" height="50" relative="1" as="geometry">
            <mxPoint x="-350" y="525" as="sourcePoint" />
            <mxPoint x="60" y="540" as="targetPoint" />
          </mxGeometry>
        </mxCell>
        <mxCell id="oGCCvsIWoTRyKpccTCJd-27" value="" style="endArrow=none;dashed=1;html=1;rounded=0;strokeColor=#91AACF;entryX=0;entryY=0.5;entryDx=0;entryDy=0;entryPerimeter=0;strokeWidth=2;" parent="1" target="oGCCvsIWoTRyKpccTCJd-4" edge="1">
          <mxGeometry width="50" height="50" relative="1" as="geometry">
            <mxPoint x="-350" y="525" as="sourcePoint" />
            <mxPoint x="235" y="200" as="targetPoint" />
          </mxGeometry>
        </mxCell>
        <mxCell id="oGCCvsIWoTRyKpccTCJd-28" value="" style="endArrow=none;dashed=1;html=1;rounded=0;strokeColor=#91AACF;entryX=0;entryY=0.5;entryDx=0;entryDy=0;entryPerimeter=0;strokeWidth=2;" parent="1" target="oGCCvsIWoTRyKpccTCJd-9" edge="1">
          <mxGeometry width="50" height="50" relative="1" as="geometry">
            <mxPoint x="-350" y="525" as="sourcePoint" />
            <mxPoint x="490" y="200" as="targetPoint" />
          </mxGeometry>
        </mxCell>
        <mxCell id="oGCCvsIWoTRyKpccTCJd-33" value="" style="endArrow=none;dashed=1;html=1;dashPattern=1 3;strokeWidth=2;rounded=0;strokeColor=#99CCFF;entryX=0.5;entryY=0.545;entryDx=0;entryDy=0;entryPerimeter=0;exitX=0.5;exitY=0.5;exitDx=0;exitDy=0;exitPerimeter=0;" parent="1" source="oGCCvsIWoTRyKpccTCJd-67" edge="1">
          <mxGeometry width="50" height="50" relative="1" as="geometry">
            <mxPoint x="365" y="365" as="sourcePoint" />
            <mxPoint x="235" y="524.95" as="targetPoint" />
          </mxGeometry>
        </mxCell>
        <mxCell id="oGCCvsIWoTRyKpccTCJd-36" value="" style="endArrow=none;dashed=1;html=1;dashPattern=1 3;strokeWidth=2;rounded=0;strokeColor=#99CCFF;" parent="1" source="oGCCvsIWoTRyKpccTCJd-4" target="oGCCvsIWoTRyKpccTCJd-11" edge="1">
          <mxGeometry width="50" height="50" relative="1" as="geometry">
            <mxPoint x="240" y="200" as="sourcePoint" />
            <mxPoint x="378" y="372" as="targetPoint" />
          </mxGeometry>
        </mxCell>
        <mxCell id="oGCCvsIWoTRyKpccTCJd-37" value="" style="endArrow=none;dashed=1;html=1;dashPattern=1 3;strokeWidth=2;rounded=0;strokeColor=#99CCFF;entryX=0.5;entryY=0.5;entryDx=0;entryDy=0;entryPerimeter=0;" parent="1" source="oGCCvsIWoTRyKpccTCJd-4" target="oGCCvsIWoTRyKpccTCJd-11" edge="1">
          <mxGeometry width="50" height="50" relative="1" as="geometry">
            <mxPoint x="240" y="200" as="sourcePoint" />
            <mxPoint x="378" y="372" as="targetPoint" />
          </mxGeometry>
        </mxCell>
        <mxCell id="oGCCvsIWoTRyKpccTCJd-38" value="" style="endArrow=none;dashed=1;html=1;dashPattern=1 3;strokeWidth=2;rounded=0;strokeColor=#99CCFF;entryX=0.5;entryY=0.5;entryDx=0;entryDy=0;entryPerimeter=0;" parent="1" source="oGCCvsIWoTRyKpccTCJd-4" target="oGCCvsIWoTRyKpccTCJd-11" edge="1">
          <mxGeometry width="50" height="50" relative="1" as="geometry">
            <mxPoint x="240" y="200" as="sourcePoint" />
            <mxPoint x="378" y="372" as="targetPoint" />
          </mxGeometry>
        </mxCell>
        <mxCell id="oGCCvsIWoTRyKpccTCJd-39" value="" style="endArrow=none;dashed=1;html=1;dashPattern=1 3;strokeWidth=2;rounded=0;strokeColor=#99CCFF;" parent="1" source="oGCCvsIWoTRyKpccTCJd-4" target="oGCCvsIWoTRyKpccTCJd-11" edge="1">
          <mxGeometry width="50" height="50" relative="1" as="geometry">
            <mxPoint x="504" y="218" as="sourcePoint" />
            <mxPoint x="378" y="372" as="targetPoint" />
          </mxGeometry>
        </mxCell>
        <mxCell id="oGCCvsIWoTRyKpccTCJd-40" value="" style="endArrow=none;dashed=1;html=1;dashPattern=1 3;strokeWidth=2;rounded=0;strokeColor=#91AACF;exitX=0.5;exitY=0.5;exitDx=0;exitDy=0;exitPerimeter=0;" parent="1" source="oGCCvsIWoTRyKpccTCJd-4" target="oGCCvsIWoTRyKpccTCJd-11" edge="1">
          <mxGeometry width="50" height="50" relative="1" as="geometry">
            <mxPoint x="240" y="200" as="sourcePoint" />
            <mxPoint x="378" y="372" as="targetPoint" />
          </mxGeometry>
        </mxCell>
        <mxCell id="oGCCvsIWoTRyKpccTCJd-41" value="$$X_r$$" style="text;html=1;align=center;verticalAlign=middle;whiteSpace=wrap;rounded=0;fontSize=23;" parent="1" vertex="1">
          <mxGeometry x="375" y="-10" width="60" height="30" as="geometry" />
        </mxCell>
        <mxCell id="oGCCvsIWoTRyKpccTCJd-43" value="$$Y_r$$" style="text;html=1;align=center;verticalAlign=middle;whiteSpace=wrap;rounded=0;fontSize=23;" parent="1" vertex="1">
          <mxGeometry x="120" y="380" width="60" height="30" as="geometry" />
        </mxCell>
        <mxCell id="oGCCvsIWoTRyKpccTCJd-45" value="" style="curved=1;endArrow=classic;html=1;rounded=0;strokeWidth=2;" parent="1" edge="1">
          <mxGeometry width="50" height="50" relative="1" as="geometry">
            <mxPoint x="398" y="160" as="sourcePoint" />
            <mxPoint x="342" y="160" as="targetPoint" />
            <Array as="points">
              <mxPoint x="372" y="130" />
            </Array>
          </mxGeometry>
        </mxCell>
        <mxCell id="oGCCvsIWoTRyKpccTCJd-46" value="&lt;font&gt;$$\dot{\theta}$$&lt;/font&gt;" style="text;html=1;align=center;verticalAlign=middle;whiteSpace=wrap;rounded=0;fontSize=18;" parent="1" vertex="1">
          <mxGeometry x="339" y="116" width="26" height="30" as="geometry" />
        </mxCell>
        <mxCell id="oGCCvsIWoTRyKpccTCJd-47" value="" style="endArrow=classic;html=1;rounded=0;strokeWidth=2;" parent="1" edge="1">
          <mxGeometry width="50" height="50" relative="1" as="geometry">
            <mxPoint x="369.76" y="354.34000000000003" as="sourcePoint" />
            <mxPoint x="369.76" y="264.34000000000003" as="targetPoint" />
          </mxGeometry>
        </mxCell>
        <mxCell id="oGCCvsIWoTRyKpccTCJd-48" value="" style="endArrow=classic;html=1;rounded=0;strokeWidth=2;" parent="1" edge="1">
          <mxGeometry width="50" height="50" relative="1" as="geometry">
            <mxPoint x="372" y="359.1" as="sourcePoint" />
            <mxPoint x="290" y="359" as="targetPoint" />
          </mxGeometry>
        </mxCell>
        <mxCell id="oGCCvsIWoTRyKpccTCJd-50" value="&lt;font&gt;$$\dot{x}$$&lt;/font&gt;" style="text;html=1;align=center;verticalAlign=middle;whiteSpace=wrap;rounded=0;fontSize=18;" parent="1" vertex="1">
          <mxGeometry x="339" y="260" width="26" height="30" as="geometry" />
        </mxCell>
        <mxCell id="oGCCvsIWoTRyKpccTCJd-51" value="&lt;font&gt;$$\dot{y}$$&lt;/font&gt;" style="text;html=1;align=center;verticalAlign=middle;whiteSpace=wrap;rounded=0;fontSize=18;" parent="1" vertex="1">
          <mxGeometry x="280" y="324.34000000000003" width="26" height="30" as="geometry" />
        </mxCell>
        <mxCell id="oGCCvsIWoTRyKpccTCJd-52" value="1" style="text;html=1;align=center;verticalAlign=middle;whiteSpace=wrap;rounded=1;fontSize=18;fontFamily=Comic Sans MS;strokeColor=default;arcSize=50;" parent="1" vertex="1">
          <mxGeometry x="240" y="140" width="30" height="30" as="geometry" />
        </mxCell>
        <mxCell id="oGCCvsIWoTRyKpccTCJd-55" value="2" style="text;html=1;align=center;verticalAlign=middle;whiteSpace=wrap;rounded=1;fontSize=18;fontFamily=Comic Sans MS;strokeColor=default;arcSize=50;" parent="1" vertex="1">
          <mxGeometry x="435" y="140" width="30" height="30" as="geometry" />
        </mxCell>
        <mxCell id="oGCCvsIWoTRyKpccTCJd-56" value="3" style="text;html=1;align=center;verticalAlign=middle;whiteSpace=wrap;rounded=1;fontSize=18;fontFamily=Comic Sans MS;strokeColor=default;arcSize=50;" parent="1" vertex="1">
          <mxGeometry x="260" y="560" width="30" height="30" as="geometry" />
        </mxCell>
        <mxCell id="oGCCvsIWoTRyKpccTCJd-57" value="4" style="text;html=1;align=center;verticalAlign=middle;whiteSpace=wrap;rounded=1;fontSize=18;fontFamily=Comic Sans MS;strokeColor=default;arcSize=50;" parent="1" vertex="1">
          <mxGeometry x="450" y="560" width="30" height="30" as="geometry" />
        </mxCell>
        <mxCell id="oGCCvsIWoTRyKpccTCJd-60" value="" style="endArrow=none;html=1;rounded=0;strokeColor=#FF8000;entryX=0.473;entryY=0.213;entryDx=0;entryDy=0;entryPerimeter=0;" parent="1" target="oGCCvsIWoTRyKpccTCJd-67" edge="1">
          <mxGeometry width="50" height="50" relative="1" as="geometry">
            <mxPoint x="234.76" y="420" as="sourcePoint" />
            <mxPoint x="234.76" y="510" as="targetPoint" />
          </mxGeometry>
        </mxCell>
        <mxCell id="oGCCvsIWoTRyKpccTCJd-62" value="" style="endArrow=none;dashed=1;html=1;dashPattern=1 3;strokeWidth=2;rounded=0;strokeColor=#91AACF;" parent="1" edge="1">
          <mxGeometry width="50" height="50" relative="1" as="geometry">
            <mxPoint x="173" y="120" as="sourcePoint" />
            <mxPoint x="233" y="193" as="targetPoint" />
          </mxGeometry>
        </mxCell>
        <mxCell id="oGCCvsIWoTRyKpccTCJd-63" value="" style="endArrow=none;dashed=1;html=1;dashPattern=1 3;strokeWidth=2;rounded=0;strokeColor=#91AACF;" parent="1" edge="1">
          <mxGeometry width="50" height="50" relative="1" as="geometry">
            <mxPoint x="575" y="107" as="sourcePoint" />
            <mxPoint x="505" y="194.5" as="targetPoint" />
          </mxGeometry>
        </mxCell>
        <mxCell id="oGCCvsIWoTRyKpccTCJd-64" value="" style="verticalLabelPosition=bottom;shadow=0;dashed=0;align=center;html=1;verticalAlign=top;shape=mxgraph.electrical.logic_gates.inverting_contact;strokeWidth=2;fillColor=#f8cecc;strokeColor=#b85450;" parent="1" vertex="1">
          <mxGeometry x="230" y="189.99999999999955" width="10" height="10" as="geometry" />
        </mxCell>
        <mxCell id="oGCCvsIWoTRyKpccTCJd-66" value="" style="endArrow=none;dashed=1;html=1;dashPattern=1 3;strokeWidth=2;rounded=0;strokeColor=#99CCFF;entryX=0.5;entryY=0.545;entryDx=0;entryDy=0;entryPerimeter=0;exitX=0.5;exitY=0.5;exitDx=0;exitDy=0;exitPerimeter=0;" parent="1" source="oGCCvsIWoTRyKpccTCJd-9" target="oGCCvsIWoTRyKpccTCJd-65" edge="1">
          <mxGeometry width="50" height="50" relative="1" as="geometry">
            <mxPoint x="505" y="195" as="sourcePoint" />
            <mxPoint x="235" y="524.95" as="targetPoint" />
          </mxGeometry>
        </mxCell>
        <mxCell id="oGCCvsIWoTRyKpccTCJd-68" value="" style="endArrow=none;dashed=1;html=1;dashPattern=1 3;strokeWidth=2;rounded=0;strokeColor=#91AACF;entryX=0.5;entryY=0.545;entryDx=0;entryDy=0;entryPerimeter=0;exitX=0.5;exitY=0.5;exitDx=0;exitDy=0;exitPerimeter=0;" parent="1" source="oGCCvsIWoTRyKpccTCJd-65" target="oGCCvsIWoTRyKpccTCJd-67" edge="1">
          <mxGeometry width="50" height="50" relative="1" as="geometry">
            <mxPoint x="505" y="195" as="sourcePoint" />
            <mxPoint x="235" y="524.95" as="targetPoint" />
          </mxGeometry>
        </mxCell>
        <mxCell id="oGCCvsIWoTRyKpccTCJd-67" value="" style="verticalLabelPosition=bottom;shadow=0;dashed=0;align=center;html=1;verticalAlign=top;shape=mxgraph.electrical.logic_gates.inverting_contact;strokeWidth=2;fillColor=#f8cecc;strokeColor=#b85450;" parent="1" vertex="1">
          <mxGeometry x="230" y="519.9999999999995" width="10" height="10" as="geometry" />
        </mxCell>
        <mxCell id="oGCCvsIWoTRyKpccTCJd-69" value="" style="verticalLabelPosition=bottom;shadow=0;dashed=0;align=center;html=1;verticalAlign=top;shape=mxgraph.electrical.logic_gates.inverting_contact;strokeWidth=2;fillColor=#f8cecc;strokeColor=#b85450;" parent="1" vertex="1">
          <mxGeometry x="500" y="519.9999999999995" width="10" height="10" as="geometry" />
        </mxCell>
        <mxCell id="oGCCvsIWoTRyKpccTCJd-79" value="$$\omega_1$$" style="text;html=1;align=center;verticalAlign=middle;whiteSpace=wrap;rounded=0;fontSize=15;" parent="1" vertex="1">
          <mxGeometry x="203" y="220" width="37" height="30" as="geometry" />
        </mxCell>
        <mxCell id="oGCCvsIWoTRyKpccTCJd-81" value="$$\omega_2$$" style="text;html=1;align=center;verticalAlign=middle;whiteSpace=wrap;rounded=0;fontSize=15;" parent="1" vertex="1">
          <mxGeometry x="480" y="240" width="37" height="30" as="geometry" />
        </mxCell>
        <mxCell id="oGCCvsIWoTRyKpccTCJd-82" value="$$\omega_3$$" style="text;html=1;align=center;verticalAlign=middle;whiteSpace=wrap;rounded=0;fontSize=15;" parent="1" vertex="1">
          <mxGeometry x="183" y="540" width="37" height="30" as="geometry" />
        </mxCell>
        <mxCell id="oGCCvsIWoTRyKpccTCJd-83" value="$$\omega_4$$" style="text;html=1;align=center;verticalAlign=middle;whiteSpace=wrap;rounded=0;fontSize=15;" parent="1" vertex="1">
          <mxGeometry x="520" y="540" width="37" height="30" as="geometry" />
        </mxCell>
        <mxCell id="oGCCvsIWoTRyKpccTCJd-86" value="" style="endArrow=classic;startArrow=classic;html=1;rounded=0;" parent="1" edge="1">
          <mxGeometry width="50" height="50" relative="1" as="geometry">
            <mxPoint x="534" y="525" as="sourcePoint" />
            <mxPoint x="534" y="470" as="targetPoint" />
          </mxGeometry>
        </mxCell>
        <mxCell id="oGCCvsIWoTRyKpccTCJd-87" value="" style="endArrow=none;dashed=1;html=1;rounded=0;entryX=0.5;entryY=0;entryDx=0;entryDy=0;entryPerimeter=0;" parent="1" edge="1">
          <mxGeometry width="50" height="50" relative="1" as="geometry">
            <mxPoint x="551" y="470" as="sourcePoint" />
            <mxPoint x="510" y="470" as="targetPoint" />
          </mxGeometry>
        </mxCell>
        <mxCell id="oGCCvsIWoTRyKpccTCJd-88" value="&lt;font&gt;$$r$$&lt;/font&gt;" style="text;html=1;align=center;verticalAlign=middle;whiteSpace=wrap;rounded=0;fontSize=15;" parent="1" vertex="1">
          <mxGeometry x="514" y="480" width="26" height="30" as="geometry" />
        </mxCell>
        <mxCell id="oGCCvsIWoTRyKpccTCJd-89" value="" style="endArrow=none;dashed=1;html=1;rounded=0;entryX=0.5;entryY=0;entryDx=0;entryDy=0;entryPerimeter=0;" parent="1" edge="1">
          <mxGeometry width="50" height="50" relative="1" as="geometry">
            <mxPoint x="551" y="524.76" as="sourcePoint" />
            <mxPoint x="510" y="524.76" as="targetPoint" />
          </mxGeometry>
        </mxCell>
        <mxCell id="oGCCvsIWoTRyKpccTCJd-93" value="$$d$$" style="text;html=1;align=center;verticalAlign=middle;whiteSpace=wrap;rounded=0;fontSize=15;" parent="1" vertex="1">
          <mxGeometry x="358" y="545" width="20.5" height="20" as="geometry" />
        </mxCell>
        <mxCell id="oGCCvsIWoTRyKpccTCJd-95" value="" style="endArrow=classic;startArrow=classic;html=1;rounded=0;" parent="1" edge="1">
          <mxGeometry width="50" height="50" relative="1" as="geometry">
            <mxPoint x="505" y="540" as="sourcePoint" />
            <mxPoint x="235" y="540" as="targetPoint" />
          </mxGeometry>
        </mxCell>
        <mxCell id="oGCCvsIWoTRyKpccTCJd-61" value="" style="endArrow=none;html=1;rounded=0;strokeColor=#FF8000;entryX=0.487;entryY=0.16;entryDx=0;entryDy=0;entryPerimeter=0;" parent="1" target="oGCCvsIWoTRyKpccTCJd-69" edge="1">
          <mxGeometry width="50" height="50" relative="1" as="geometry">
            <mxPoint x="504.76" y="420" as="sourcePoint" />
            <mxPoint x="504.76" y="510" as="targetPoint" />
          </mxGeometry>
        </mxCell>
        <mxCell id="oGCCvsIWoTRyKpccTCJd-98" value="" style="endArrow=none;html=1;rounded=0;strokeColor=#FF8000;dashed=1;" parent="1" edge="1">
          <mxGeometry width="50" height="50" relative="1" as="geometry">
            <mxPoint x="504.8" y="190" as="sourcePoint" />
            <mxPoint x="504.8" y="120" as="targetPoint" />
          </mxGeometry>
        </mxCell>
        <mxCell id="oGCCvsIWoTRyKpccTCJd-65" value="" style="verticalLabelPosition=bottom;shadow=0;dashed=0;align=center;html=1;verticalAlign=top;shape=mxgraph.electrical.logic_gates.inverting_contact;strokeWidth=2;fillColor=#f8cecc;strokeColor=#b85450;" parent="1" vertex="1">
          <mxGeometry x="500" y="189.99999999999955" width="10" height="10" as="geometry" />
        </mxCell>
        <mxCell id="oGCCvsIWoTRyKpccTCJd-99" value="" style="curved=1;endArrow=none;html=1;rounded=0;startFill=0;" parent="1" edge="1">
          <mxGeometry width="50" height="50" relative="1" as="geometry">
            <mxPoint x="220" y="170" as="sourcePoint" />
            <mxPoint x="235" y="165" as="targetPoint" />
            <Array as="points">
              <mxPoint x="225" y="160.5" />
            </Array>
          </mxGeometry>
        </mxCell>
        <mxCell id="oGCCvsIWoTRyKpccTCJd-97" value="" style="endArrow=none;html=1;rounded=0;strokeColor=#FF8000;dashed=1;" parent="1" edge="1">
          <mxGeometry width="50" height="50" relative="1" as="geometry">
            <mxPoint x="234.66000000000003" y="190" as="sourcePoint" />
            <mxPoint x="234.66000000000003" y="120" as="targetPoint" />
          </mxGeometry>
        </mxCell>
        <mxCell id="oGCCvsIWoTRyKpccTCJd-58" value="" style="endArrow=none;html=1;rounded=0;entryX=0.5;entryY=1;entryDx=0;entryDy=0;entryPerimeter=0;exitX=0.5;exitY=0;exitDx=0;exitDy=0;exitPerimeter=0;strokeColor=#FF8000;" parent="1" edge="1">
          <mxGeometry width="50" height="50" relative="1" as="geometry">
            <mxPoint x="177" y="95.99860279185589" as="sourcePoint" />
            <mxPoint x="232" y="191.26139720814388" as="targetPoint" />
          </mxGeometry>
        </mxCell>
        <mxCell id="oGCCvsIWoTRyKpccTCJd-100" value="" style="curved=1;endArrow=none;html=1;rounded=0;startFill=0;" parent="1" edge="1">
          <mxGeometry width="50" height="50" relative="1" as="geometry">
            <mxPoint x="491" y="159.5" as="sourcePoint" />
            <mxPoint x="504" y="158.5" as="targetPoint" />
            <Array as="points">
              <mxPoint x="496" y="152.5" />
            </Array>
          </mxGeometry>
        </mxCell>
        <mxCell id="oGCCvsIWoTRyKpccTCJd-59" value="" style="endArrow=none;html=1;rounded=0;entryX=0.5;entryY=1;entryDx=0;entryDy=0;entryPerimeter=0;exitX=0.5;exitY=0;exitDx=0;exitDy=0;exitPerimeter=0;strokeColor=#FF8000;" parent="1" edge="1">
          <mxGeometry width="50" height="50" relative="1" as="geometry">
            <mxPoint x="462.99663736212494" y="91.00488799882669" as="sourcePoint" />
            <mxPoint x="504.2033626378751" y="192.9951120011733" as="targetPoint" />
          </mxGeometry>
        </mxCell>
        <mxCell id="oGCCvsIWoTRyKpccTCJd-101" value="$$\varphi_1$$" style="text;html=1;align=center;verticalAlign=middle;whiteSpace=wrap;rounded=0;fontSize=15;" parent="1" vertex="1">
          <mxGeometry x="210" y="122" width="20" height="20" as="geometry" />
        </mxCell>
        <mxCell id="oGCCvsIWoTRyKpccTCJd-102" value="$$\varphi_2$$" style="text;html=1;align=center;verticalAlign=middle;whiteSpace=wrap;rounded=0;fontSize=15;" parent="1" vertex="1">
          <mxGeometry x="482.5" y="118" width="20" height="20" as="geometry" />
        </mxCell>
        <mxCell id="oGCCvsIWoTRyKpccTCJd-103" value="" style="curved=1;endArrow=none;html=1;rounded=0;startFill=0;" parent="1" edge="1">
          <mxGeometry width="50" height="50" relative="1" as="geometry">
            <mxPoint x="371" y="326.34000000000003" as="sourcePoint" />
            <mxPoint x="392" y="332.34000000000003" as="targetPoint" />
            <Array as="points">
              <mxPoint x="384" y="320.34000000000003" />
            </Array>
          </mxGeometry>
        </mxCell>
        <mxCell id="oGCCvsIWoTRyKpccTCJd-104" value="$$\alpha$$" style="text;html=1;align=center;verticalAlign=middle;whiteSpace=wrap;rounded=0;fontSize=15;" parent="1" vertex="1">
          <mxGeometry x="375" y="304.34000000000003" width="20" height="20" as="geometry" />
        </mxCell>
        <mxCell id="oGCCvsIWoTRyKpccTCJd-105" value="Wheel 1" style="text;html=1;align=center;verticalAlign=middle;whiteSpace=wrap;rounded=0;fontSize=20;" parent="1" vertex="1">
          <mxGeometry x="600" y="364.34000000000003" width="100" height="30" as="geometry" />
        </mxCell>
        <mxCell id="oGCCvsIWoTRyKpccTCJd-106" value="Wheel 2" style="text;html=1;align=center;verticalAlign=middle;whiteSpace=wrap;rounded=0;fontSize=20;" parent="1" vertex="1">
          <mxGeometry x="600" y="454.34000000000003" width="100" height="30" as="geometry" />
        </mxCell>
        <mxCell id="oGCCvsIWoTRyKpccTCJd-107" value="Wheel 3" style="text;html=1;align=center;verticalAlign=middle;whiteSpace=wrap;rounded=0;fontSize=20;" parent="1" vertex="1">
          <mxGeometry x="600" y="544.34" width="100" height="30" as="geometry" />
        </mxCell>
        <mxCell id="oGCCvsIWoTRyKpccTCJd-108" value="Wheel 4" style="text;html=1;align=center;verticalAlign=middle;whiteSpace=wrap;rounded=0;fontSize=20;" parent="1" vertex="1">
          <mxGeometry x="600" y="634.34" width="100" height="30" as="geometry" />
        </mxCell>
        <mxCell id="oGCCvsIWoTRyKpccTCJd-109" value="$$R$$" style="text;html=1;align=center;verticalAlign=middle;whiteSpace=wrap;rounded=0;fontSize=15;" parent="1" vertex="1">
          <mxGeometry x="285.5" y="410" width="20.5" height="20" as="geometry" />
        </mxCell>
        <mxCell id="oGCCvsIWoTRyKpccTCJd-112" value="" style="endArrow=classic;startArrow=classic;html=1;rounded=0;" parent="1" edge="1">
          <mxGeometry width="50" height="50" relative="1" as="geometry">
            <mxPoint x="547" y="525.34" as="sourcePoint" />
            <mxPoint x="547" y="195.34" as="targetPoint" />
          </mxGeometry>
        </mxCell>
        <mxCell id="oGCCvsIWoTRyKpccTCJd-113" value="" style="endArrow=none;html=1;rounded=0;strokeColor=#FF8000;entryX=0.473;entryY=0.213;entryDx=0;entryDy=0;entryPerimeter=0;dashed=1;" parent="1" edge="1">
          <mxGeometry width="50" height="50" relative="1" as="geometry">
            <mxPoint x="234.70999999999998" y="530" as="sourcePoint" />
            <mxPoint x="234.95" y="557" as="targetPoint" />
          </mxGeometry>
        </mxCell>
        <mxCell id="oGCCvsIWoTRyKpccTCJd-114" value="" style="endArrow=none;html=1;rounded=0;strokeColor=#FF8000;entryX=0.473;entryY=0.213;entryDx=0;entryDy=0;entryPerimeter=0;dashed=1;" parent="1" edge="1">
          <mxGeometry width="50" height="50" relative="1" as="geometry">
            <mxPoint x="504.85999999999996" y="530" as="sourcePoint" />
            <mxPoint x="505.09999999999997" y="557" as="targetPoint" />
          </mxGeometry>
        </mxCell>
        <mxCell id="oGCCvsIWoTRyKpccTCJd-115" value="" style="endArrow=none;dashed=1;html=1;rounded=0;entryX=0.5;entryY=0;entryDx=0;entryDy=0;entryPerimeter=0;" parent="1" edge="1">
          <mxGeometry width="50" height="50" relative="1" as="geometry">
            <mxPoint x="551" y="194.70999999999998" as="sourcePoint" />
            <mxPoint x="510" y="194.70999999999998" as="targetPoint" />
          </mxGeometry>
        </mxCell>
        <mxCell id="oGCCvsIWoTRyKpccTCJd-116" value="&lt;font&gt;$$l$$&lt;/font&gt;" style="text;html=1;align=center;verticalAlign=middle;whiteSpace=wrap;rounded=0;fontSize=15;" parent="1" vertex="1">
          <mxGeometry x="523.5" y="334.34000000000003" width="26" height="30" as="geometry" />
        </mxCell>
        <mxCell id="oGCCvsIWoTRyKpccTCJd-119" value="$$R=\sqrt{(\frac{d}{2})^2+(\frac{l}{2})^2}$$" style="text;html=1;align=center;verticalAlign=middle;whiteSpace=wrap;rounded=0;fontSize=15;" parent="1" vertex="1">
          <mxGeometry x="670" y="125.99999999999994" width="20.5" height="20" as="geometry" />
        </mxCell>
        <mxCell id="oGCCvsIWoTRyKpccTCJd-124" value="$$\frac{l}{\tan{\varphi_1}}-\frac{l}{\tan{\varphi_2}}=d$$" style="text;html=1;align=center;verticalAlign=middle;whiteSpace=wrap;rounded=0;fontSize=15;" parent="1" vertex="1">
          <mxGeometry x="800" y="205.00000000000003" width="20.5" height="20" as="geometry" />
        </mxCell>
        <mxCell id="oGCCvsIWoTRyKpccTCJd-127" value="$$\begin{cases}\dot{x}-R\dot{\theta}\sin\alpha=r\omega_3\\\dot{y}-R\dot{\theta}\cos\alpha=0\end{cases}$$" style="text;html=1;align=center;verticalAlign=middle;whiteSpace=wrap;rounded=0;fontSize=15;" parent="1" vertex="1">
          <mxGeometry x="775" y="549.34" width="20.5" height="20" as="geometry" />
        </mxCell>
        <mxCell id="oGCCvsIWoTRyKpccTCJd-131" value="$$\begin{cases}\dot{x}+R\dot{\theta}\sin\alpha=r\omega_4\\\dot{y}-R\dot{\theta}\cos\alpha=0\end{cases}$$" style="text;html=1;align=center;verticalAlign=middle;whiteSpace=wrap;rounded=0;fontSize=15;" parent="1" vertex="1">
          <mxGeometry x="775" y="639.34" width="20.5" height="20" as="geometry" />
        </mxCell>
        <mxCell id="oGCCvsIWoTRyKpccTCJd-132" value="$$\begin{cases}\dot{x}\cos{\varphi_1}+\dot{y}\sin{\varphi_1}-R\dot{\theta}\sin(\alpha-\varphi_1)=r\omega_1\\-\dot{x}\sin{\varphi_1}+\dot{y}\cos{\varphi_1}+R\dot{\theta}\cos(\alpha-\varphi_1)=0\end{cases}$$" style="text;html=1;align=center;verticalAlign=middle;whiteSpace=wrap;rounded=0;fontSize=15;" parent="1" vertex="1">
          <mxGeometry x="865" y="369.34000000000003" width="20.5" height="20" as="geometry" />
        </mxCell>
        <mxCell id="oGCCvsIWoTRyKpccTCJd-134" value="$$\begin{cases}\dot{x}\cos{\varphi_2}+\dot{y}\sin{\varphi_2}+R\dot{\theta}\sin(\alpha+\varphi_2)=r\omega_2\\-\dot{x}\sin{\varphi_2}+\dot{y}\cos{\varphi_2}+R\dot{\theta}\cos(\alpha+\varphi_2)=0\end{cases}$$" style="text;html=1;align=center;verticalAlign=middle;whiteSpace=wrap;rounded=0;fontSize=15;" parent="1" vertex="1">
          <mxGeometry x="865" y="459.34000000000003" width="20.5" height="20" as="geometry" />
        </mxCell>
        <mxCell id="oGCCvsIWoTRyKpccTCJd-139" value="Ackermann&lt;div&gt;Steering&lt;/div&gt;" style="text;html=1;align=center;verticalAlign=middle;whiteSpace=wrap;rounded=0;fontSize=20;" parent="1" vertex="1">
          <mxGeometry x="600" y="200" width="100" height="30" as="geometry" />
        </mxCell>
        <mxCell id="oGCCvsIWoTRyKpccTCJd-142" value="Rotate Constraint" style="text;html=1;align=center;verticalAlign=middle;whiteSpace=wrap;rounded=0;fontSize=20;" parent="1" vertex="1">
          <mxGeometry x="600" y="280" width="100" height="30" as="geometry" />
        </mxCell>
        <mxCell id="oGCCvsIWoTRyKpccTCJd-144" value="$$l\dot{\theta}=r\omega_1\sin\varphi_1=r\omega_2\sin\varphi_2=r\omega_3\tan\varphi_1=r\omega_4\tan\varphi_2$$" style="text;html=1;align=center;verticalAlign=middle;whiteSpace=wrap;rounded=0;fontSize=15;" parent="1" vertex="1">
          <mxGeometry x="910" y="284.34" width="20.5" height="20" as="geometry" />
        </mxCell>
      </root>
    </mxGraphModel>
  </diagram>
</mxfile>
